<?xml version="1.0" encoding="UTF-8"?>
<svg version="1.1" xmlns="http://www.w3.org/2000/svg" width="1024" height="1024">
<path d="M0 0 C337.92 0 675.84 0 1024 0 C1024 337.92 1024 675.84 1024 1024 C686.08 1024 348.16 1024 0 1024 C0 686.08 0 348.16 0 0 Z " fill="#121212" transform="translate(0,0)"/>
<path d="M0 0 C30.29070793 13.25528884 61.27777233 15.88906339 94.11376953 15.81347656 C96.24300683 15.81483069 98.37224383 15.81677735 100.5014801 15.8192749 C104.92411293 15.82219175 109.34666394 15.81804164 113.76928711 15.80859375 C119.36349486 15.79720853 124.95751036 15.80377521 130.55171108 15.81573868 C134.93705118 15.82305747 139.32234768 15.82062399 143.70768929 15.81548309 C145.7672128 15.81417372 147.82674062 15.81569583 149.88625908 15.8204422 C160.88595921 15.84024273 171.79894779 15.55288837 182.76635742 14.66796875 C183.72257461 14.5920966 184.67879179 14.51622444 185.66398525 14.43805313 C206.68940687 12.57463351 226.00735776 6.22693628 245.05517578 -2.57714844 C270.44106585 -14.30754865 299.83017596 -16.37121742 326.24267578 -6.76464844 C366.52056134 8.86285595 389.14783381 43.86592258 405.97290039 81.68310547 C411.12613518 93.38573006 415.71650955 105.27082242 419.93457031 117.34277344 C420.65546426 119.40462437 421.38492713 121.4635098 422.125 123.51855469 C428.02084879 139.8943911 432.68761135 156.58821659 437.30517578 173.36035156 C437.60363403 174.44082764 437.90209229 175.52130371 438.20959473 176.63452148 C443.46502794 195.71924147 448.53845472 214.85892404 451.30517578 234.48535156 C451.46501953 235.56751953 451.62486328 236.6496875 451.78955078 237.76464844 C452.22019353 240.6912248 452.64012674 243.61902919 453.05517578 246.54785156 C453.23242188 247.6600708 453.40966797 248.77229004 453.59228516 249.91821289 C454.45392602 256.67454974 454.29996065 263.49546477 454.30517578 270.29785156 C454.3061879 271.47669418 454.3061879 271.47669418 454.30722046 272.67935181 C454.29105827 284.51475478 453.95292348 296.01010759 451.05517578 307.54785156 C450.87825195 308.25377441 450.70132813 308.95969727 450.51904297 309.68701172 C445.44738129 329.07582541 434.40679006 347.54478319 417.10986328 358.39550781 C400.58665129 367.17481236 380.34642803 368.25367948 362.29736328 363.57910156 C345.17098717 358.13167591 330.07815115 349.80158389 316.05517578 338.54785156 C314.70552734 337.48630859 314.70552734 337.48630859 313.32861328 336.40332031 C303.43748317 328.49326669 294.30405849 319.86964734 285.43774414 310.84204102 C271.58455132 296.77018262 254.96997877 280.15943741 234.05517578 278.54785156 C233.26111328 278.47953125 232.46705078 278.41121094 231.64892578 278.34082031 C224.09257479 278.01800152 217.28886103 280.03805983 210.08496094 282.11621094 C200.23886239 284.94048056 190.431176 287.1547261 180.30517578 288.73535156 C179.33241699 288.8899585 178.3596582 289.04456543 177.35742188 289.20385742 C157.43843461 292.15214939 137.54037347 292.92495027 117.43017578 292.86035156 C116.24717896 292.85852875 115.06418213 292.85670593 113.84533691 292.85482788 C96.07940509 292.8088138 78.62527639 292.4040883 61.05517578 289.54785156 C59.92853516 289.36561035 58.80189453 289.18336914 57.64111328 288.99560547 C43.1166018 286.56469939 29.08106065 283.22803388 15.11767578 278.56738281 C4.67601045 275.17702502 -3.83720974 276.16703911 -13.75341797 280.88378906 C-28.2186078 288.75992164 -39.48913217 300.86137594 -50.86621094 312.54223633 C-56.13313093 317.9111987 -61.54076942 322.85751088 -67.43041992 327.53808594 C-69.99166197 329.58528902 -72.4689383 331.71115397 -74.94482422 333.86035156 C-101.02584921 355.13501623 -131.20129754 366.80743693 -164.94482422 364.54785156 C-169.58760335 363.94066359 -173.70183862 362.52051887 -177.94482422 360.54785156 C-179.03666016 360.05027344 -180.12849609 359.55269531 -181.25341797 359.04003906 C-199.16347576 350.13677334 -210.99994325 334.19929 -217.64892578 315.57568359 C-219.01649997 311.29199045 -220.10421143 306.96206942 -220.94482422 302.54785156 C-221.20972656 301.18974365 -221.20972656 301.18974365 -221.47998047 299.80419922 C-222.96606616 291.34484088 -223.25393333 283.10644811 -223.20556641 274.54736328 C-223.19490216 272.31417276 -223.20549797 270.08179825 -223.21826172 267.84863281 C-223.2285201 257.61674508 -222.35449954 247.67667742 -220.94482422 237.54785156 C-220.80947266 236.5354541 -220.67412109 235.52305664 -220.53466797 234.47998047 C-213.11800325 181.29217226 -195.41237966 127.20161097 -172.94482422 78.54785156 C-172.16573534 76.82669787 -171.38707261 75.10535121 -170.60888672 73.38378906 C-153.26111171 35.42703852 -127.76149653 5.56394034 -87.94482422 -9.45214844 C-57.6352341 -19.05683215 -28.13894739 -12.31560428 0 0 Z " fill="#FEFEFE" transform="translate(395.94482421875,365.4521484375)"/>
<path d="M0 0 C16.53516491 12.58951919 26.13604015 29.32665418 30.44848633 49.47753906 C32.84826858 69.65153268 29.58293598 90.08659013 17.49145508 106.77832031 C4.76901661 122.71306882 -11.298961 134.38450516 -31.98510742 137.18066406 C-53.4473189 139.08667554 -73.20265365 134.53872589 -90.25854492 120.90332031 C-91.92311273 119.44526839 -93.57108317 117.96788579 -95.19604492 116.46582031 C-95.84959961 115.88058594 -96.5031543 115.29535156 -97.17651367 114.69238281 C-109.89585624 102.73114676 -117.67781243 86.11573473 -118.58276367 68.72753906 C-119.1809247 48.02095082 -115.2651508 27.86899351 -101.00854492 12.02832031 C-75.48838552 -14.71812667 -30.85838362 -22.3064168 0 0 Z " fill="#121212" transform="translate(707.196044921875,454.5341796875)"/>
<path d="M0 0 C1.18497574 0.2997876 2.36995148 0.5995752 3.59083557 0.90844727 C4.88571183 1.24504145 6.18054585 1.58179817 7.4753418 1.91870117 C8.85353046 2.27073882 10.23190808 2.6220374 11.61045837 2.97265625 C15.35113212 3.92628904 19.08907172 4.89026252 22.82661438 5.85608292 C26.78902123 6.87807487 30.75390008 7.89038743 34.71850586 8.90380859 C42.23878724 10.82769352 49.75684104 12.76013598 57.27403831 14.69603252 C65.46313736 16.80471381 73.65419841 18.90571389 81.84551048 21.00577927 C92.03805001 23.61892776 102.23020533 26.23352825 112.41992188 28.85766602 C126.43988311 32.4674745 140.4626769 36.06332499 154.50268555 39.59448242 C156.8890932 40.19623186 159.27548689 40.79803667 161.66186523 41.39990234 C165.978388 42.48831355 170.29693895 43.56808131 174.61694336 44.64257812 C176.52165112 45.12230118 178.42627883 45.6023422 180.33081055 46.08276367 C181.15953674 46.28608307 181.98826294 46.48940247 182.84210205 46.69888306 C200.10000934 51.08591212 200.10000934 51.08591212 204.86206055 58.64916992 C211.10737267 70.39916421 207.26499647 80.55940006 203.71362305 92.64135742 C203.29588348 94.07851567 202.87852137 95.51578368 202.46151733 96.95315552 C201.59059496 99.94836662 200.71409599 102.94187475 199.83374023 105.93432617 C198.70669269 109.76755496 197.59547351 113.60516996 196.48851967 117.44424248 C195.63237741 120.40593025 194.76714337 123.36490235 193.89921188 126.32315445 C193.4855633 127.73765944 193.07493428 129.15305113 192.66740799 130.56933212 C192.09791658 132.54397917 191.5160777 134.51457038 190.9309082 136.48461914 C190.43912582 138.16598465 190.43912582 138.16598465 189.93740845 139.88131714 C188.87739407 142.60970276 188.1846951 143.92136128 185.86206055 145.64916992 C183.19192296 146.51523826 180.5753544 147.26729059 177.86206055 147.96166992 C169.34825877 150.28764274 162.21327826 153.74835811 154.86206055 158.64916992 C157.51220145 147.50851184 160.6061491 136.550598 163.95101929 125.59979248 C167.60980478 113.61104464 171.25378226 101.61863234 174.54956055 89.52416992 C174.89639893 88.25839111 174.89639893 88.25839111 175.25024414 86.96704102 C176.34739825 82.87483663 177.19462609 78.83820426 177.86206055 74.64916992 C176.93723877 74.43873047 176.01241699 74.22829102 175.05957031 74.01147461 C162.79598152 71.1889313 150.62588555 68.02924546 138.4503479 64.85140991 C113.52584588 58.35031706 88.55824382 52.03489402 63.5620842 45.81570339 C51.16578018 42.73119072 38.77039068 39.64549548 26.40112305 36.45385742 C25.47222763 36.21425797 24.54333221 35.97465851 23.58628845 35.72779846 C19.41780036 34.65097373 15.25086598 33.56853608 11.0859375 32.47802734 C9.66626778 32.10926277 8.24659058 31.74052697 6.8269043 31.37182617 C5.63701904 31.05995361 4.44713379 30.74808105 3.22119141 30.42675781 C-0.26844021 29.61896097 -3.55833259 28.87462523 -7.13793945 28.64916992 C-10.44246866 30.96302609 -11.11131001 34.06303998 -12.21240234 37.81469727 C-12.39885693 38.44009683 -12.58531151 39.06549639 -12.77741623 39.70984745 C-13.39772898 41.79898892 -14.004104 43.89191561 -14.6105957 45.98510742 C-15.0499122 47.47494486 -15.49009193 48.964528 -15.93107605 50.45387268 C-16.87335331 53.64305363 -17.80948637 56.83395009 -18.74084473 60.02633667 C-20.202339 65.03574269 -21.67750137 70.04105778 -23.15454102 75.04589844 C-25.91845048 84.41872268 -28.66755094 93.79585153 -31.41321564 103.17403412 C-32.57523357 107.1426524 -33.7381029 111.11102103 -34.90112305 115.0793457 C-35.23199181 116.20837374 -35.23199181 116.20837374 -35.56954479 117.36021042 C-37.25082009 123.09625558 -38.93511776 128.83140972 -40.62099171 134.56610489 C-41.79217287 138.55181527 -42.95761415 142.53914643 -44.1184206 146.52789021 C-45.00133782 149.55771031 -45.8905457 152.58568556 -46.77856445 155.61401367 C-47.24893379 157.23999229 -47.24893379 157.23999229 -47.72880554 158.89881897 C-48.0188295 159.88369797 -48.30885345 160.86857697 -48.60766602 161.88330078 C-48.85663635 162.73709824 -49.10560669 163.59089569 -49.36212158 164.4705658 C-50.13793945 166.64916992 -50.13793945 166.64916992 -52.13793945 169.64916992 C-53.18852539 169.23924805 -54.23911133 168.82932617 -55.3215332 168.40698242 C-62.53228854 165.62740792 -69.50109481 163.01289218 -77.13793945 161.64916992 C-76.46002458 155.7354337 -75.02135333 150.19924948 -73.3918457 144.48120117 C-73.10917343 143.47745453 -72.82650116 142.47370789 -72.53526306 141.43954468 C-71.59572032 138.11203112 -70.64854718 134.78675247 -69.70043945 131.46166992 C-69.37446777 130.31300446 -69.04849609 129.16433899 -68.71264648 127.98086548 C-62.48811351 106.05841452 -55.98713993 84.22213419 -49.39404297 62.40820312 C-49.03423843 61.21682236 -48.6744339 60.02544159 -48.3037262 58.79795837 C-47.59578781 56.45806467 -46.88541606 54.11890564 -46.17247009 51.78053284 C-44.47007141 46.17553745 -42.82546571 40.56483479 -41.2980957 34.90942383 C-41.00149048 33.83098709 -40.70488525 32.75255035 -40.39929199 31.64143372 C-39.85254697 29.64078986 -39.32098743 27.63589392 -38.8092041 25.62602234 C-35.67937503 14.26597462 -29.32009893 6.45063288 -19.13793945 0.64916992 C-12.75191871 -2.23080022 -6.6744822 -1.71313079 0 0 Z " fill="#FDFDFD" transform="translate(484.137939453125,190.350830078125)"/>
<path d="M0 0 C0.69652679 0.35576111 1.39305359 0.71152222 2.11068726 1.07806396 C3.57003568 1.82436056 5.0278254 2.57371241 6.48410034 3.32598877 C8.5489313 4.39192735 10.61821417 5.44852303 12.68969727 6.50146484 C16.72491308 8.55446938 20.7523873 10.62227626 24.77734375 12.6953125 C25.48724457 13.06082214 26.19714539 13.42633179 26.92855835 13.80291748 C38.53870402 19.78656422 50.08128521 25.87885621 61.48730469 32.24511719 C63.45179623 33.33413844 65.42751028 34.39765441 67.41015625 35.453125 C74.73608219 39.46708442 80.29684085 43.73430669 84.08984375 51.3203125 C85.7433664 60.50654944 84.66593131 68.3794969 79.65234375 76.4453125 C73.51018863 82.84883592 65.60870421 86.33719475 57.77734375 90.2578125 C56.31360671 90.99978709 54.8503997 91.74280813 53.38769531 92.48681641 C50.34351914 94.03419411 47.29711135 95.5770422 44.24902344 97.11669922 C37.64615493 100.45617125 31.07046905 103.84829215 24.49487305 107.24105835 C22.41582117 108.31336131 20.33594593 109.38405143 18.25585938 110.4543457 C9.37861709 115.02428266 0.52166304 119.63134782 -8.29785156 124.31201172 C-9.06452148 124.71693848 -9.83119141 125.12186523 -10.62109375 125.5390625 C-11.27513184 125.88646484 -11.92916992 126.23386719 -12.60302734 126.59179688 C-19.24076864 129.83914414 -28.27392147 129.5455966 -35.3125 127.64453125 C-42.44876456 124.44475777 -47.60562369 118.98165851 -50.41522217 111.66531372 C-53.4189703 101.29238458 -50.69488282 90.17143678 -48.64453125 79.828125 C-48.36175415 78.35823491 -48.07989291 76.88816837 -47.79888916 75.41793823 C-47.21104855 72.35575041 -46.61533879 69.29524439 -46.01318359 66.23583984 C-45.25056639 62.36014108 -44.5031501 58.48171504 -43.76115036 54.60202217 C-43.18045144 51.57068515 -42.59392862 48.54049811 -42.00553131 45.51064682 C-41.72852338 44.08307713 -41.45267331 42.65528216 -41.17812347 41.2272377 C-34.32464447 5.70915519 -34.32464447 5.70915519 -22.34765625 -2.5546875 C-15.00189183 -7.12097349 -6.97535764 -3.63399581 0 0 Z " fill="#121112" transform="translate(332.34765625,461.5546875)"/>
<path d="M0 0 C10.75450604 9.28446565 17.88284257 19.63882462 20.171875 33.875 C21.20669643 51.11071429 18.40741676 65.63939728 6.921875 79.0625 C-0.79690192 87.29160928 -11.37681315 94.07216449 -22.91186523 95.05200195 C-40.87799567 95.54684435 -56.46830063 92.95595056 -70.140625 80.125 C-81.09169501 68.2632381 -85.77335402 55.00816205 -85.1484375 39.03125 C-84.18486638 23.97458476 -78.61484094 13.24948476 -67.828125 2.875 C-48.79694904 -13.00451625 -20.05293029 -15.61167727 0 0 Z " fill="#FEFEFE" transform="translate(695.828125,474.125)"/>
<path d="M0 0 C5.49142853 0.59721689 9.97230909 2.52407538 14.95703125 4.75390625 C15.81826096 5.13304672 16.67949066 5.51218719 17.56681824 5.90281677 C19.39125733 6.70748115 21.21425351 7.51542398 23.03588867 8.32641602 C25.76248239 9.5402333 28.49303708 10.74470063 31.22460938 11.94726562 C35.64399832 13.89728692 40.05328926 15.86876061 44.456604 17.85479736 C46.13747996 18.61163727 47.82003518 19.36475987 49.5043335 20.11395264 C51.8454505 21.15706408 54.17928515 22.21498419 56.51171875 23.27734375 C57.19893509 23.58056046 57.88615143 23.88377716 58.5941925 24.19618225 C62.88609414 26.17762236 65.93696341 28.39551936 69 32 C69.8125 34.9375 69.8125 34.9375 69 38 C62.89116122 44.27154393 54.00900404 47.76098655 46.25 51.5625 C44.83515954 52.26235742 43.4204478 52.96247511 42.00585938 53.6628418 C32.55711815 58.32491258 23.05210142 62.86630673 13.5 67.3125 C12.35692383 67.84496338 11.21384766 68.37742676 10.03613281 68.92602539 C-6.912853 76.73562784 -6.912853 76.73562784 -14 75 C-14.33 74.67 -14.66 74.34 -15 74 C-14.82392173 66.39855045 -13.39574696 58.87822284 -11.9375 51.4375 C-11.72706055 50.35138428 -11.51662109 49.26526855 -11.29980469 48.14624023 C-4.30791968 12.92375903 -4.30791968 12.92375903 0 0 Z " fill="#FDFDFD" transform="translate(318,487)"/>
<path d="M0 0 C3.10033232 1.37702629 5.19426604 2.9567273 7.56640625 5.37109375 C8.21673828 6.02787109 8.86707031 6.68464844 9.53710938 7.36132812 C10.20548828 8.04646484 10.87386719 8.73160156 11.5625 9.4375 C12.23474609 10.11876953 12.90699219 10.80003906 13.59960938 11.50195312 C14.85069616 12.77043337 16.09971314 14.04096087 17.34594727 15.31420898 C18.40910495 16.39776674 19.48336775 17.47059813 20.57104492 18.52954102 C22.92961706 20.95661773 24.80910636 23.73866551 26.75 26.5 C27.17410156 27.08136719 27.59820313 27.66273438 28.03515625 28.26171875 C29.10617073 29.78625728 30.06225001 31.39005755 31 33 C30.67 33.99 30.34 34.98 30 36 C29.48953125 35.21238281 28.9790625 34.42476563 28.453125 33.61328125 C20.72548936 22.03552928 11.5155192 12.29522078 1.546875 2.609375 C0 1 0 1 0 0 Z " fill="#080808" transform="translate(753,376)"/>
<path d="M0 0 C0 0.66 0 1.32 0 2 C-0.94101562 2.44730469 -1.88203125 2.89460938 -2.8515625 3.35546875 C-4.10958875 3.96570537 -5.36738929 4.57640747 -6.625 5.1875 C-7.24246094 5.47947266 -7.85992188 5.77144531 -8.49609375 6.07226562 C-14.08171823 8.80628182 -18.5305237 12.34024498 -22.875 16.8125 C-23.57625 17.534375 -24.2775 18.25625 -25 19 C-25.33 18.01 -25.66 17.02 -26 16 C-7.89569161 0 -7.89569161 0 0 0 Z " fill="#080808" transform="translate(635,448)"/>
<path d="M0 0 C3.30647459 2.59794432 6.172262 5.09873828 8.8125 8.375 C12.31416483 12.62368666 16.57566927 15.76532264 21 19 C20.67 19.66 20.34 20.32 20 21 C1.76029412 6.45441176 1.76029412 6.45441176 0 0 Z " fill="#0A0A0A" transform="translate(603,559)"/>
<path d="M0 0 C0.66 0 1.32 0 2 0 C0.52330783 4.90116848 -2.24933852 7.70189221 -5.8125 11.1875 C-6.59463867 11.98704102 -6.59463867 11.98704102 -7.39257812 12.80273438 C-10.38995136 15.77765537 -12.86317806 17.75360078 -17 19 C-17 18.34 -17 17.68 -17 17 C-15.53125 15.80859375 -15.53125 15.80859375 -13.5 14.4375 C-8.2986531 10.68251694 -2.90577558 5.81155116 0 0 Z " fill="#070707" transform="translate(708,545)"/>
<path d="M0 0 C0.66 0.33 1.32 0.66 2 1 C0.11332491 2.96791947 -1.78341886 4.9240423 -3.6875 6.875 C-4.21794922 7.43058594 -4.74839844 7.98617187 -5.29492188 8.55859375 C-8.32498606 11.64442599 -10.74067143 13.75143986 -15 15 C-15 14.34 -15 13.68 -15 13 C-13.48772933 11.6697891 -11.91330976 10.40972409 -10.3125 9.1875 C-6.60823991 6.30290598 -3.20781202 3.42166616 0 0 Z " fill="#060607" transform="translate(829,709)"/>
<path d="M0 0 C3.7000155 1.6132769 6.53020949 3.93073996 9.625 6.5 C10.58664063 7.2940625 11.54828125 8.088125 12.5390625 8.90625 C15 11 15 11 17 13 C11.93302733 12.62397234 9.18313786 9.87246229 5.6875 6.5 C5.13771484 5.98824219 4.58792969 5.47648438 4.02148438 4.94921875 C2.65364888 3.66124446 1.32321865 2.33377063 0 1 C0 0.67 0 0.34 0 0 Z " fill="#060606" transform="translate(193,709)"/>
<path d="M0 0 C1 2 1 2 -0.21484375 5.6953125 C-0.78133585 7.17485658 -1.35591889 8.65132181 -1.9375 10.125 C-2.22818359 10.87910156 -2.51886719 11.63320313 -2.81835938 12.41015625 C-3.53874998 14.27608602 -4.26850404 16.1383958 -5 18 C-5.66 17.67 -6.32 17.34 -7 17 C-5.34608232 10.77274933 -3.44240996 5.46037442 0 0 Z " fill="#060606" transform="translate(599,477)"/>
<path d="M0 0 C0.66 0.33 1.32 0.66 2 1 C0.59148053 2.32123942 -0.82715741 3.63169769 -2.25 4.9375 C-3.03890625 5.66839844 -3.8278125 6.39929688 -4.640625 7.15234375 C-6.89044414 8.91420543 -8.21628554 9.59776603 -11 10 C-7.50640535 6.40365256 -3.88901869 3.16548033 0 0 Z " fill="#080808" transform="translate(325,695)"/>
<path d="M0 0 C4.48525648 0.656379 8.66914029 1.70074209 13 3 C13 3.33 13 3.66 13 4 C11.3954444 3.85851011 9.79136233 3.71164314 8.1875 3.5625 C7.29417969 3.48128906 6.40085937 3.40007813 5.48046875 3.31640625 C3 3 3 3 0 2 C0 1.34 0 0.68 0 0 Z " fill="#0C0C0B" transform="translate(639,586)"/>
<path d="M0 0 C3.36720387 1.39332574 4.9859524 2.9789286 7 6 C4 6 4 6 1.8125 4.125 C0 2 0 2 0 0 Z " fill="#1A1A1A" transform="translate(712,460)"/>
</svg>
